<svg width="554" height="404" viewBox="0 0 554 404" fill="none" xmlns="http://www.w3.org/2000/svg">
<g clip-path="url(#clip0)">
<path d="M504.328 210.654C496.859 232.878 486.453 253.885 473.415 273.054C473.115 273.5 472.81 273.936 472.502 274.379L432.946 260.897C433.125 260.467 433.319 259.985 433.528 259.46C445.985 228.447 520.958 39.4107 512.997 0C513.757 3.2362 538.597 110.303 504.328 210.654Z" fill="#E6E6E6"/>
<path d="M481.046 275.655C480.563 276.038 480.066 276.417 479.564 276.786L449.889 266.672C450.244 266.326 450.657 265.919 451.133 265.46C458.901 257.819 481.978 234.924 504.328 210.654C528.347 184.572 551.533 156.906 554 144.873C553.536 147.619 538.901 231.139 481.046 275.655Z" fill="#E6E6E6"/>
<path d="M525.749 404H17.0567C12.533 404 8.19455 402.109 4.99579 398.742C1.79704 395.376 0 390.81 0 386.049C184.401 363.495 365.336 363.495 542.805 386.049C542.805 390.81 541.008 395.376 537.81 398.742C534.611 402.109 530.272 404 525.749 404Z" fill="#2F2E41"/>
<path d="M542.805 387.105L0 386.049L62.9092 274.648L63.2102 274.12V28.6058C63.21 25.6258 63.7675 22.6749 64.851 19.9217C65.9345 17.1685 67.5227 14.6668 69.525 12.5596C71.5272 10.4524 73.9043 8.78096 76.5203 7.64067C79.1364 6.50038 81.9403 5.91361 84.7719 5.91386H455.023C457.855 5.91361 460.659 6.50039 463.275 7.64068C465.891 8.78097 468.268 10.4524 470.27 12.5596C472.273 14.6668 473.861 17.1685 474.944 19.9217C476.028 22.6749 476.585 25.6258 476.585 28.6058V275.81L542.805 387.105Z" fill="#3F3D56"/>
<path d="M84.2803 21.7528C82.4182 21.755 80.633 22.5345 79.3163 23.9202C77.9997 25.3059 77.259 27.1847 77.2569 29.1443V253.002C77.2591 254.961 77.9998 256.84 79.3165 258.226C80.6331 259.612 82.4183 260.391 84.2803 260.393H458.525C460.387 260.391 462.172 259.611 463.489 258.226C464.805 256.84 465.546 254.961 465.548 253.002V29.1443C465.546 27.1847 464.806 25.306 463.489 23.9203C462.172 22.5346 460.387 21.7551 458.525 21.7528H84.2803Z" fill="white"/>
<path d="M86.7399 289.959C86.1645 289.96 85.6013 290.135 85.1168 290.461C84.6323 290.788 84.2466 291.253 84.0052 291.803L64.6209 336.152C64.4099 336.635 64.3176 337.166 64.3525 337.696C64.3874 338.226 64.5484 338.738 64.8207 339.185C65.093 339.633 65.4678 340.001 65.9107 340.256C66.3536 340.511 66.8503 340.644 67.3551 340.644H474.997C475.51 340.644 476.014 340.506 476.462 340.243C476.91 339.98 477.287 339.601 477.557 339.142C477.827 338.682 477.98 338.158 478.003 337.619C478.026 337.079 477.918 336.542 477.688 336.06L456.618 291.71C456.369 291.183 455.986 290.74 455.51 290.43C455.034 290.121 454.486 289.958 453.926 289.959L86.7399 289.959Z" fill="#2F2E41"/>
<path d="M269.898 18.0571C272.391 18.0571 274.413 15.9297 274.413 13.3054C274.413 10.6811 272.391 8.55368 269.898 8.55368C267.404 8.55368 265.383 10.6811 265.383 13.3054C265.383 15.9297 267.404 18.0571 269.898 18.0571Z" fill="white"/>
<path d="M229.83 349.092C229.168 349.092 228.525 349.322 228 349.746C227.475 350.17 227.097 350.763 226.924 351.435L222.061 370.442C221.941 370.912 221.925 371.404 222.015 371.881C222.104 372.358 222.297 372.807 222.578 373.193C222.859 373.579 223.221 373.892 223.635 374.107C224.05 374.322 224.505 374.434 224.967 374.434H317.439C317.918 374.434 318.391 374.313 318.818 374.082C319.244 373.85 319.612 373.515 319.89 373.103C320.169 372.692 320.349 372.217 320.417 371.717C320.486 371.217 320.439 370.707 320.282 370.23L314.031 351.223C313.826 350.601 313.442 350.061 312.932 349.679C312.422 349.297 311.812 349.092 311.186 349.092L229.83 349.092Z" fill="#2F2E41"/>
<path d="M476.585 270.425V274.648H62.9089L63.2206 274.121V270.425H476.585Z" fill="#2F2E41"/>
<path d="M347.974 61.3038H250.371V63.1799H347.974C352.78 63.1799 357.388 65.1889 360.786 68.7649C364.184 72.3408 366.093 77.1909 366.093 82.2481C366.093 87.3052 364.184 92.1553 360.786 95.7313C357.388 99.3072 352.78 101.316 347.974 101.316H200.284C195.479 101.316 190.87 99.3072 187.472 95.7313C184.075 92.1553 182.166 87.3052 182.166 82.2481C182.166 77.1909 184.075 72.3408 187.472 68.7649C190.87 65.1889 195.479 63.1799 200.284 63.1799H205.803V61.3038H200.284C195.008 61.307 189.949 63.5151 186.219 67.4425C182.49 71.37 180.395 76.6954 180.395 82.2481C180.395 87.8007 182.49 93.1261 186.219 97.0536C189.949 100.981 195.008 103.189 200.284 103.192H347.974C350.589 103.194 353.178 102.653 355.594 101.602C358.01 100.55 360.205 99.0073 362.054 97.0623C363.903 95.1172 365.37 92.8078 366.371 90.2659C367.372 87.7241 367.887 84.9995 367.887 82.2481C367.887 79.4966 367.372 76.7721 366.371 74.2302C365.37 71.6883 363.903 69.3789 362.054 67.4339C360.205 65.4888 358.01 63.9463 355.594 62.8945C353.178 61.8427 350.589 61.3021 347.974 61.3038Z" fill="#E6E6E6"/>
<path d="M347.974 126.032H250.371V127.908H347.974C352.778 127.911 357.383 129.921 360.779 133.497C364.174 137.072 366.082 141.921 366.082 146.976C366.082 152.031 364.174 156.879 360.779 160.455C357.383 164.031 352.778 166.041 347.974 166.044H200.284C195.479 166.044 190.87 164.035 187.472 160.459C184.075 156.883 182.166 152.033 182.166 146.976C182.166 141.919 184.075 137.069 187.472 133.493C190.87 129.917 195.479 127.908 200.284 127.908H205.803V126.032H200.284C195.008 126.035 189.949 128.243 186.219 132.17C182.49 136.098 180.395 141.423 180.395 146.976C180.395 152.529 182.49 157.854 186.219 161.781C189.949 165.709 195.008 167.917 200.284 167.92H347.974C350.589 167.922 353.178 167.381 355.594 166.329C358.01 165.278 360.205 163.735 362.054 161.79C363.903 159.845 365.37 157.536 366.371 154.994C367.372 152.452 367.887 149.727 367.887 146.976C367.887 144.224 367.372 141.5 366.371 138.958C365.37 136.416 363.903 134.107 362.054 132.162C360.205 130.217 358.01 128.674 355.594 127.622C353.178 126.571 350.589 126.03 347.974 126.032Z" fill="#E6E6E6"/>
<path d="M347.974 190.759H250.371V192.636H347.974C352.78 192.636 357.388 194.645 360.786 198.221C364.184 201.797 366.093 206.647 366.093 211.704C366.093 216.761 364.184 221.611 360.786 225.187C357.388 228.763 352.78 230.772 347.974 230.772H200.284C195.479 230.772 190.87 228.763 187.472 225.187C184.075 221.611 182.166 216.761 182.166 211.704C182.166 206.647 184.075 201.797 187.472 198.221C190.87 194.645 195.479 192.636 200.284 192.636H205.803V190.759H200.284C195.006 190.759 189.944 192.966 186.212 196.894C182.48 200.822 180.383 206.149 180.383 211.704C180.383 217.259 182.48 222.586 186.212 226.514C189.944 230.441 195.006 232.648 200.284 232.648H347.974C350.588 232.648 353.176 232.106 355.59 231.054C358.005 230.001 360.199 228.458 362.047 226.514C363.895 224.569 365.36 222.26 366.361 219.719C367.361 217.178 367.875 214.454 367.875 211.704C367.875 208.953 367.361 206.23 366.361 203.689C365.36 201.148 363.895 198.839 362.047 196.894C360.199 194.949 358.005 193.406 355.59 192.354C353.176 191.301 350.588 190.759 347.974 190.759Z" fill="#E6E6E6"/>
<path d="M216.82 56.3472C215.429 56.371 214.103 56.9691 213.128 58.0126C212.152 59.0561 211.605 60.4613 211.605 61.9251C211.605 63.389 212.152 64.7942 213.128 65.8376C214.103 66.8811 215.429 67.4792 216.82 67.503H240.072C240.768 67.515 241.459 67.3827 242.107 67.1135C242.754 66.8443 243.345 66.4435 243.845 65.934C244.345 65.4246 244.745 64.8164 245.022 64.1443C245.299 63.4722 245.447 62.7492 245.459 62.0167C245.47 61.2842 245.345 60.5565 245.089 59.8752C244.833 59.1938 244.452 58.5722 243.968 58.0457C243.484 57.5193 242.906 57.0983 242.268 56.8069C241.629 56.5154 240.942 56.3593 240.246 56.3472C240.188 56.3462 240.13 56.3462 240.072 56.3472H216.82Z" fill="#3F3D56"/>
<path d="M216.82 122.013C215.429 122.037 214.103 122.635 213.128 123.679C212.152 124.722 211.605 126.127 211.605 127.591C211.605 129.055 212.152 130.46 213.128 131.504C214.103 132.547 215.429 133.145 216.82 133.169H240.072C241.477 133.193 242.835 132.629 243.845 131.6C244.855 130.571 245.436 129.162 245.459 127.683C245.482 126.203 244.946 124.775 243.968 123.712C242.99 122.648 241.652 122.037 240.246 122.013C240.188 122.012 240.13 122.012 240.072 122.013H216.82Z" fill="#3F3D56"/>
<path d="M216.82 185.803C215.429 185.827 214.103 186.425 213.128 187.468C212.152 188.512 211.606 189.917 211.606 191.381C211.606 192.845 212.152 194.25 213.128 195.293C214.103 196.337 215.429 196.935 216.82 196.959H240.072C241.477 196.983 242.835 196.419 243.845 195.39C244.855 194.361 245.436 192.952 245.459 191.472C245.482 189.993 244.946 188.565 243.968 187.501C242.99 186.438 241.652 185.827 240.246 185.803C240.188 185.802 240.13 185.802 240.072 185.803H216.82Z" fill="#3F3D56"/>
<path d="M207.598 76.6702C206.207 76.6939 204.881 77.2921 203.905 78.3355C202.93 79.379 202.383 80.7842 202.383 82.2481C202.383 83.7119 202.93 85.1171 203.905 86.1606C204.881 87.2041 206.207 87.8022 207.598 87.826H340.487C341.183 87.838 341.874 87.7056 342.522 87.4364C343.169 87.1672 343.76 86.7664 344.26 86.257C344.76 85.7475 345.16 85.1394 345.437 84.4672C345.714 83.7951 345.862 83.0721 345.874 82.3396C345.885 81.6071 345.759 80.8795 345.504 80.1981C345.248 79.5168 344.867 78.8951 344.383 78.3687C343.899 77.8422 343.321 77.4212 342.682 77.1298C342.044 76.8384 341.357 76.6822 340.661 76.6702C340.603 76.6691 340.545 76.6691 340.487 76.6702H207.598Z" fill="#E6F288"/>
<path d="M207.598 141.398C206.207 141.422 204.881 142.02 203.905 143.064C202.93 144.107 202.383 145.512 202.383 146.976C202.383 148.44 202.93 149.845 203.905 150.888C204.881 151.932 206.207 152.53 207.598 152.554H340.487C341.183 152.566 341.874 152.433 342.522 152.164C343.169 151.895 343.76 151.494 344.26 150.985C344.76 150.475 345.16 149.867 345.437 149.195C345.714 148.523 345.862 147.8 345.874 147.068C345.885 146.335 345.759 145.607 345.504 144.926C345.248 144.245 344.867 143.623 344.383 143.097C343.899 142.57 343.321 142.149 342.682 141.858C342.044 141.566 341.357 141.41 340.661 141.398C340.603 141.397 340.545 141.397 340.487 141.398H207.598Z" fill="#E6F288"/>
<path d="M207.598 206.126C206.207 206.15 204.881 206.748 203.905 207.791C202.93 208.835 202.383 210.24 202.383 211.704C202.383 213.168 202.93 214.573 203.905 215.616C204.881 216.66 206.207 217.258 207.598 217.282H340.487C341.183 217.294 341.874 217.161 342.522 216.892C343.169 216.623 343.76 216.222 344.26 215.713C344.76 215.203 345.16 214.595 345.437 213.923C345.714 213.251 345.862 212.528 345.874 211.795C345.885 211.063 345.759 210.335 345.504 209.654C345.248 208.972 344.867 208.351 344.383 207.824C343.899 207.298 343.321 206.877 342.682 206.586C342.044 206.294 341.357 206.138 340.661 206.126C340.603 206.125 340.545 206.125 340.487 206.126H207.598Z" fill="#E6E6E6"/>
<path d="M158.241 92.979C164.103 92.979 168.855 87.9779 168.855 81.8086C168.855 75.6394 164.103 70.6383 158.241 70.6383C152.379 70.6383 147.627 75.6394 147.627 81.8086C147.627 87.9779 152.379 92.979 158.241 92.979Z" fill="#E6F288"/>
<path d="M157.257 86.398L154.165 82.2139L155.963 80.7419L157.427 82.7229L162.373 77.2282L164.027 78.8776L157.257 86.398Z" fill="white"/>
<path d="M158.241 157.707C164.103 157.707 168.855 152.706 168.855 146.537C168.855 140.367 164.103 135.366 158.241 135.366C152.379 135.366 147.627 140.367 147.627 146.537C147.627 152.706 152.379 157.707 158.241 157.707Z" fill="#E6F288"/>
<path d="M157.257 151.126L154.165 146.942L155.963 145.47L157.427 147.451L162.373 141.956L164.027 143.606L157.257 151.126Z" fill="white"/>
<path d="M158.241 222.435C164.103 222.435 168.855 217.434 168.855 211.264C168.855 205.095 164.103 200.094 158.241 200.094C152.379 200.094 147.627 205.095 147.627 211.264C147.627 217.434 152.379 222.435 158.241 222.435Z" fill="#E6E6E6"/>
<path d="M390.886 92.979C396.748 92.979 401.5 87.9779 401.5 81.8086C401.5 75.6394 396.748 70.6383 390.886 70.6383C385.024 70.6383 380.272 75.6394 380.272 81.8086C380.272 87.9779 385.024 92.979 390.886 92.979Z" fill="#E6E6E6"/>
<path d="M390.886 157.707C396.748 157.707 401.5 152.706 401.5 146.537C401.5 140.367 396.748 135.366 390.886 135.366C385.024 135.366 380.272 140.367 380.272 146.537C380.272 152.706 385.024 157.707 390.886 157.707Z" fill="#E6E6E6"/>
<path d="M390.886 222.435C396.748 222.435 401.5 217.434 401.5 211.264C401.5 205.095 396.748 200.094 390.886 200.094C385.024 200.094 380.272 205.095 380.272 211.264C380.272 217.434 385.024 222.435 390.886 222.435Z" fill="#E6E6E6"/>
<path d="M157.257 215.854L154.165 211.67L155.963 210.198L157.427 212.179L162.373 206.684L164.027 208.333L157.257 215.854Z" fill="white"/>
<path d="M388.204 78.2207L387.321 79.1504L393.256 85.3966L394.139 84.4669L388.204 78.2207Z" fill="white"/>
<path d="M393.568 78.2207L387.633 84.4669L388.517 85.3966L394.452 79.1504L393.568 78.2207Z" fill="white"/>
<path d="M388.204 142.949L387.321 143.878L393.256 150.124L394.139 149.195L388.204 142.949Z" fill="white"/>
<path d="M393.568 142.949L387.633 149.195L388.517 150.124L394.452 143.878L393.568 142.949Z" fill="white"/>
<path d="M388.204 207.676L387.321 208.606L393.256 214.852L394.139 213.923L388.204 207.676Z" fill="white"/>
<path d="M393.568 207.676L387.633 213.923L388.517 214.852L394.452 208.606L393.568 207.676Z" fill="white"/>
<path d="M160.283 206.79C161.208 206.146 161.988 205.299 162.572 204.307C163.155 203.315 163.527 202.202 163.662 201.044C163.797 199.886 163.691 198.711 163.353 197.6C163.015 196.49 162.451 195.469 161.702 194.61L151.513 182.921L141.726 188.136L149.217 203.706C149.705 204.721 150.392 205.616 151.232 206.332C152.073 207.048 153.048 207.569 154.093 207.86C155.138 208.151 156.23 208.206 157.297 208.022C158.364 207.837 159.381 207.417 160.283 206.79Z" fill="#FFB8B8"/>
<path d="M28.5681 241.504C29.6691 241.369 30.7293 240.985 31.6754 240.377C32.6216 239.77 33.4312 238.953 34.0485 237.984C34.6658 237.016 35.0761 235.917 35.2511 234.765C35.4261 233.613 35.3615 232.435 35.062 231.312L30.9885 216.04H20.0186V233.492C20.0186 234.63 20.2474 235.755 20.6899 236.793C21.1323 237.831 21.7785 238.759 22.586 239.516C23.3935 240.273 24.3439 240.841 25.3749 241.184C26.4059 241.526 27.4942 241.636 28.5681 241.504Z" fill="#FFB8B8"/>
<path d="M91.9323 356.717L112.654 353.297L104.122 343.889H91.9323V356.717Z" fill="#FFB8B8"/>
<path d="M25.3004 357.572L46.834 363.559C42.8678 354.9 40.4255 347.238 41.9585 342.179L31.8011 340.896L25.3004 357.572Z" fill="#FFB8B8"/>
<path d="M29.7694 343.034L42.3649 345.6L76.8997 228.44L91.5261 345.172H104.934L103.715 180.122H51.7094L29.7694 343.034Z" fill="#575A88"/>
<path d="M95.8995 361.91L116.396 354.814C116.94 354.626 117.439 354.316 117.859 353.907C118.279 353.498 118.61 352.998 118.83 352.442C119.05 351.886 119.154 351.286 119.134 350.684C119.114 350.082 118.972 349.492 118.716 348.953C118.364 348.213 117.813 347.599 117.13 347.188C116.448 346.777 115.666 346.587 114.882 346.643L110.232 346.974L108.41 345.895C108.218 345.781 107.997 345.733 107.778 345.758C107.559 345.782 107.353 345.878 107.188 346.031C107.023 346.185 106.908 346.389 106.858 346.615C106.808 346.841 106.826 347.077 106.91 347.291L108.591 351.586L91.5262 350.303L90.6843 357.392C90.6007 358.096 90.6876 358.811 90.9369 359.47C91.1862 360.129 91.5899 360.711 92.1103 361.162C92.6307 361.612 93.251 361.917 93.9135 362.048C94.576 362.179 95.2592 362.131 95.8995 361.91Z" fill="#575A88"/>
<path d="M26.6242 365.172L48.9045 366.692C49.4956 366.732 50.088 366.638 50.6415 366.416C51.1949 366.194 51.6964 365.849 52.1118 365.404C52.5273 364.96 52.8469 364.427 53.0489 363.841C53.2509 363.255 53.3307 362.63 53.2827 362.008C53.2168 361.155 52.9127 360.341 52.4086 359.67C51.9045 358.998 51.223 358.498 50.4497 358.233L45.865 356.66L44.512 354.883C44.3694 354.696 44.175 354.56 43.9558 354.495C43.7365 354.429 43.5033 354.437 43.2885 354.518C43.0738 354.598 42.8882 354.747 42.7575 354.943C42.6269 355.14 42.5576 355.375 42.5595 355.614L42.5963 360.42L26.6858 352.252L23.2758 358.715C22.9372 359.356 22.7583 360.078 22.7558 360.812C22.7532 361.546 22.9271 362.269 23.2612 362.913C23.5953 363.557 24.0789 364.102 24.6669 364.497C25.2548 364.892 25.9282 365.124 26.6242 365.172Z" fill="#575A88"/>
<path d="M74.0556 87.7626C82.358 87.7626 89.0885 80.6793 89.0885 71.9417C89.0885 63.2041 82.358 56.1208 74.0556 56.1208C65.7532 56.1208 59.0228 63.2041 59.0228 71.9417C59.0228 80.6793 65.7532 87.7626 74.0556 87.7626Z" fill="#FFB8B8"/>
<path d="M64.3046 101.018H85.0255V80.0659H64.3046C66.0169 86.5366 65.7955 93.587 64.3046 101.018Z" fill="#FFB8B8"/>
<path d="M48.8654 182.26L105.746 183.115L111.435 119.872C111.435 115.746 110.207 111.723 107.923 108.369C105.64 105.015 102.415 102.498 98.703 101.171L89.9011 98.0247L85.0255 92.0385C78.8699 90.6385 72.1725 90.9778 65.1172 92.466L59.8354 100.59L54.1476 102.501C50.2823 103.799 46.9229 106.384 44.5757 109.867C42.2285 113.35 41.0208 117.542 41.1348 121.81C45.3671 144.817 48.6581 166.199 48.8654 182.26Z" fill="#E6F288"/>
<path d="M17.9872 216.04L32.2074 217.75L48.4591 148.908L50.0843 104.439L49.6045 104.683C45.8429 106.598 42.5568 109.41 40.0066 112.893C37.4563 116.377 35.712 120.438 34.9117 124.755L17.9872 216.04Z" fill="#E6F288"/>
<path d="M142.313 190.384L153.283 184.826L121.107 121.639C116.434 112.462 108.837 105.312 99.6521 101.445L105.747 141.639L142.313 190.384Z" fill="#E6F288"/>
<path d="M64.7643 86.1813C64.7643 86.1813 79.5054 85.2612 79.8245 82.5779C80.1436 79.8945 82.2959 73.7732 84.8456 74.1091C87.3953 74.4449 94.4616 65.4994 92.9483 61.8933C91.4349 58.2872 84.2921 45.0104 69.7096 51.1297C55.1272 57.2489 56.7983 72.5951 58.3117 76.2012C59.8251 79.8073 64.7643 86.1813 64.7643 86.1813Z" fill="#2F2E41"/>
<path d="M425.525 280.1C425.364 280.1 425.207 280.156 425.079 280.259C424.951 280.363 424.859 280.507 424.817 280.671L423.633 285.299C423.604 285.414 423.6 285.534 423.622 285.65C423.644 285.766 423.691 285.875 423.759 285.969C423.827 286.063 423.915 286.139 424.016 286.192C424.117 286.244 424.228 286.271 424.341 286.271H446.859C446.976 286.271 447.091 286.242 447.195 286.186C447.299 286.129 447.388 286.048 447.456 285.947C447.524 285.847 447.568 285.731 447.584 285.61C447.601 285.488 447.59 285.364 447.551 285.248L446.029 280.619C445.979 280.468 445.886 280.336 445.762 280.243C445.637 280.15 445.489 280.1 445.336 280.1H425.525Z" fill="#E6F288"/>
<path d="M392.646 280.1C392.484 280.1 392.328 280.156 392.2 280.259C392.072 280.363 391.98 280.507 391.938 280.671L390.754 285.299C390.725 285.414 390.721 285.534 390.743 285.65C390.764 285.766 390.811 285.875 390.88 285.969C390.948 286.063 391.036 286.139 391.137 286.192C391.238 286.244 391.349 286.271 391.462 286.271H413.98C414.096 286.271 414.212 286.242 414.316 286.186C414.419 286.129 414.509 286.048 414.577 285.947C414.644 285.847 414.688 285.731 414.705 285.61C414.722 285.488 414.71 285.364 414.672 285.248L413.15 280.619C413.1 280.468 413.006 280.336 412.882 280.243C412.758 280.15 412.61 280.1 412.457 280.1H392.646Z" fill="#E6F288"/>
</g>
<defs>
<clipPath id="clip0">
<rect width="554" height="404" fill="white"/>
</clipPath>
</defs>
</svg>
