<svg width="493" height="339" viewBox="0 0 493 339" fill="none" xmlns="http://www.w3.org/2000/svg">
<g clip-path="url(#clip0)">
<path d="M106.819 300.915C120.979 300.915 132.458 287.177 132.458 270.232C132.458 253.286 120.979 239.548 106.819 239.548C92.6595 239.548 81.1807 253.286 81.1807 270.232C81.1807 287.177 92.6595 300.915 106.819 300.915Z" fill="#F2F2F2"/>
<path d="M110.988 296.425C125.148 296.425 136.627 282.687 136.627 265.741C136.627 248.795 125.148 235.058 110.988 235.058C96.8285 235.058 85.3496 248.795 85.3496 265.741C85.3496 282.687 96.8285 296.425 110.988 296.425Z" fill="#E6F288"/>
<path d="M448.857 231.791H131.637V232.827H448.857V231.791Z" fill="#3F3D56"/>
<path d="M295.926 9.6603H183.332V6.88306H132.277V9.6603H19.2194C18.2192 9.6603 17.2289 9.89605 16.3048 10.3541C15.3808 10.8122 14.5412 11.4835 13.834 12.3299C13.1268 13.1763 12.5658 14.1811 12.183 15.2869C11.8003 16.3927 11.6033 17.5779 11.6033 18.7749V203.284C11.6033 205.702 12.4057 208.02 13.834 209.729C15.2623 211.439 17.1995 212.399 19.2194 212.399H295.926C297.946 212.399 299.883 211.439 301.311 209.729C302.739 208.02 303.542 205.702 303.542 203.284V18.7749C303.542 17.5779 303.345 16.3927 302.962 15.2869C302.579 14.1811 302.018 13.1763 301.311 12.3299C300.604 11.4835 299.764 10.8122 298.84 10.3541C297.916 9.89605 296.926 9.6603 295.926 9.6603Z" fill="#3F3D56"/>
<path d="M293.331 25.7683H21.8142V209.066H293.331V25.7683Z" fill="#E6F288"/>
<path d="M157.34 20.7693C158.878 20.7693 160.125 19.2772 160.125 17.4366C160.125 15.596 158.878 14.1039 157.34 14.1039C155.802 14.1039 154.556 15.596 154.556 17.4366C154.556 19.2772 155.802 20.7693 157.34 20.7693Z" fill="#E6F288"/>
<path opacity="0.1" d="M215.682 209.067H21.8142V25.7685L215.682 209.067Z" fill="black"/>
<path d="M64.2984 195.35C78.7125 195.35 90.3974 181.366 90.3974 164.116C90.3974 146.866 78.7125 132.882 64.2984 132.882C49.8843 132.882 38.1994 146.866 38.1994 164.116C38.1994 181.366 49.8843 195.35 64.2984 195.35Z" fill="#F2F2F2"/>
<path d="M246.055 124.622H220.693V130.965H246.055V124.622Z" fill="#3F3D56"/>
<path d="M276.718 75.2427H190.03V77.9608H276.718V75.2427Z" fill="#3F3D56"/>
<path d="M276.718 83.8501H190.03V86.5683H276.718V83.8501Z" fill="#3F3D56"/>
<path d="M276.718 92.4576H190.03V95.1758H276.718V92.4576Z" fill="#3F3D56"/>
<path d="M276.718 101.065H190.03V103.783H276.718V101.065Z" fill="#3F3D56"/>
<path d="M276.718 109.673H190.03V112.391H276.718V109.673Z" fill="#3F3D56"/>
<path d="M276.718 29.4871H266.118V42.1718H276.718V29.4871Z" fill="#F2F2F2"/>
<path d="M281.639 48.0611H268.768V32.6582H281.639V48.0611ZM269.328 47.3915H281.079V33.3279H269.328V47.3915Z" fill="#3F3D56"/>
<path d="M311.165 205.734H284.667V203.449C284.667 203.389 284.657 203.33 284.638 203.276C284.619 203.221 284.591 203.171 284.556 203.129C284.521 203.086 284.479 203.053 284.433 203.03C284.387 203.008 284.338 202.996 284.289 202.996H275.203C275.154 202.996 275.104 203.008 275.059 203.03C275.013 203.053 274.971 203.086 274.936 203.129C274.901 203.171 274.873 203.221 274.854 203.276C274.835 203.33 274.825 203.389 274.825 203.449V205.734H269.147V203.449C269.147 203.389 269.137 203.33 269.118 203.276C269.099 203.221 269.071 203.171 269.036 203.129C269.001 203.086 268.959 203.053 268.913 203.03C268.867 203.008 268.818 202.996 268.768 202.996H259.683C259.633 202.996 259.584 203.008 259.538 203.03C259.492 203.053 259.45 203.086 259.415 203.129C259.38 203.171 259.352 203.221 259.333 203.276C259.314 203.33 259.304 203.389 259.304 203.449V205.734H253.626V203.449C253.626 203.389 253.616 203.33 253.597 203.276C253.578 203.221 253.551 203.171 253.515 203.129C253.48 203.086 253.439 203.053 253.393 203.03C253.347 203.008 253.297 202.996 253.248 202.996H244.163C244.113 202.996 244.064 203.008 244.018 203.03C243.972 203.053 243.93 203.086 243.895 203.129C243.86 203.171 243.832 203.221 243.813 203.276C243.794 203.33 243.784 203.389 243.784 203.449V205.734H238.106V203.449C238.106 203.389 238.096 203.33 238.077 203.276C238.058 203.221 238.03 203.171 237.995 203.129C237.96 203.086 237.918 203.053 237.872 203.03C237.826 203.008 237.777 202.996 237.727 202.996H228.642C228.592 202.996 228.543 203.008 228.497 203.03C228.451 203.053 228.41 203.086 228.374 203.129C228.339 203.171 228.311 203.221 228.292 203.276C228.273 203.33 228.264 203.389 228.264 203.449V205.734H222.585V203.449C222.585 203.389 222.576 203.33 222.557 203.276C222.538 203.221 222.51 203.171 222.475 203.129C222.439 203.086 222.398 203.053 222.352 203.03C222.306 203.008 222.257 202.996 222.207 202.996H213.122C213.072 202.996 213.023 203.008 212.977 203.03C212.931 203.053 212.889 203.086 212.854 203.129C212.819 203.171 212.791 203.221 212.772 203.276C212.753 203.33 212.743 203.389 212.743 203.449V205.734H207.065V203.449C207.065 203.389 207.055 203.33 207.036 203.276C207.017 203.221 206.989 203.171 206.954 203.129C206.919 203.086 206.877 203.053 206.831 203.03C206.785 203.008 206.736 202.996 206.686 202.996H197.601C197.552 202.996 197.502 203.008 197.456 203.03C197.411 203.053 197.369 203.086 197.334 203.129C197.299 203.171 197.271 203.221 197.252 203.276C197.233 203.33 197.223 203.389 197.223 203.449V205.734H191.545V203.449C191.545 203.389 191.535 203.33 191.516 203.276C191.497 203.221 191.469 203.171 191.434 203.129C191.399 203.086 191.357 203.053 191.311 203.03C191.265 203.008 191.216 202.996 191.166 202.996H119.999C119.95 202.996 119.9 203.008 119.854 203.03C119.808 203.053 119.767 203.086 119.732 203.129C119.696 203.171 119.669 203.221 119.65 203.276C119.631 203.33 119.621 203.389 119.621 203.449V205.734H113.943V203.449C113.943 203.389 113.933 203.33 113.914 203.276C113.895 203.221 113.867 203.171 113.832 203.129C113.797 203.086 113.755 203.053 113.709 203.03C113.663 203.008 113.614 202.996 113.564 202.996H104.479C104.429 202.996 104.38 203.008 104.334 203.03C104.288 203.053 104.246 203.086 104.211 203.129C104.176 203.171 104.148 203.221 104.129 203.276C104.11 203.33 104.1 203.389 104.1 203.449V205.734H98.4221V203.449C98.4221 203.389 98.4123 203.33 98.3933 203.276C98.3743 203.221 98.3464 203.171 98.3112 203.129C98.2761 203.086 98.2344 203.053 98.1884 203.03C98.1425 203.008 98.0933 202.996 98.0436 202.996H88.9585C88.9087 202.996 88.8595 203.008 88.8136 203.03C88.7677 203.053 88.7259 203.086 88.6908 203.129C88.6556 203.171 88.6277 203.221 88.6087 203.276C88.5897 203.33 88.5799 203.389 88.5799 203.449V205.734H82.9017V203.449C82.9017 203.389 82.8919 203.33 82.8729 203.276C82.8539 203.221 82.826 203.171 82.7908 203.129C82.7557 203.086 82.714 203.053 82.668 203.03C82.6221 203.008 82.5729 202.996 82.5232 202.996H73.438C73.3883 202.996 73.3391 203.008 73.2932 203.03C73.2473 203.053 73.2055 203.086 73.1704 203.129C73.1352 203.171 73.1073 203.221 73.0883 203.276C73.0693 203.33 73.0595 203.389 73.0595 203.449V205.734H67.3813V203.449C67.3813 203.389 67.3715 203.33 67.3525 203.276C67.3335 203.221 67.3056 203.171 67.2704 203.129C67.2353 203.086 67.1936 203.053 67.1476 203.03C67.1017 203.008 67.0525 202.996 67.0028 202.996H57.9176C57.8679 202.996 57.8187 203.008 57.7728 203.03C57.7268 203.053 57.6851 203.086 57.65 203.129C57.6148 203.171 57.5869 203.221 57.5679 203.276C57.5489 203.33 57.5391 203.389 57.5391 203.449V205.734H51.8609V203.449C51.8609 203.389 51.8511 203.33 51.8321 203.276C51.8131 203.221 51.7852 203.171 51.75 203.129C51.7149 203.086 51.6731 203.053 51.6272 203.03C51.5813 203.008 51.5321 202.996 51.4823 202.996H42.3972C42.3475 202.996 42.2983 203.008 42.2524 203.03C42.2064 203.053 42.1647 203.086 42.1295 203.129C42.0944 203.171 42.0665 203.221 42.0475 203.276C42.0285 203.33 42.0187 203.389 42.0187 203.449V205.734H36.3405V203.449C36.3405 203.389 36.3307 203.33 36.3117 203.276C36.2926 203.221 36.2648 203.171 36.2296 203.129C36.1945 203.086 36.1527 203.053 36.1068 203.03C36.0609 203.008 36.0116 202.996 35.9619 202.996H26.8768C26.8271 202.996 26.7779 203.008 26.7319 203.03C26.686 203.053 26.6443 203.086 26.6091 203.129C26.574 203.171 26.5461 203.221 26.5271 203.276C26.5081 203.33 26.4983 203.389 26.4983 203.449V205.734H9.08512C6.6756 205.734 4.36476 206.879 2.66097 208.918C0.957183 210.957 2.29556e-06 213.723 0 216.606V221.523C6.88667e-06 224.406 0.95719 227.172 2.66098 229.211C4.36477 231.25 6.6756 232.395 9.08512 232.395H311.165C313.575 232.395 315.886 231.25 317.589 229.211C319.293 227.172 320.25 224.406 320.25 221.523V216.606C320.25 213.723 319.293 210.957 317.589 208.918C315.886 206.879 313.575 205.734 311.165 205.734Z" fill="#3F3D56"/>
<path d="M70.6158 183.624C64.1107 183.624 57.7516 181.316 52.3428 176.991C46.934 172.666 42.7183 166.518 40.2289 159.326C37.7395 152.133 37.0881 144.219 38.3572 136.584C39.6263 128.948 42.7588 121.935 47.3587 116.43C51.9585 110.925 57.819 107.176 64.1992 105.657C70.5793 104.138 77.1925 104.918 83.2025 107.897C89.2125 110.876 94.3493 115.921 97.9634 122.394C101.577 128.867 103.506 136.478 103.506 144.263C103.497 154.698 100.028 164.703 93.8621 172.083C87.696 179.462 79.3359 183.613 70.6158 183.624ZM70.6158 105.937C64.2819 105.937 58.0902 108.184 52.8237 112.396C47.5572 116.607 43.4524 122.593 41.0285 129.596C38.6046 136.599 37.9704 144.305 39.2061 151.74C40.4418 159.174 43.4919 166.003 47.9707 171.363C52.4495 176.723 58.1558 180.373 64.368 181.852C70.5803 183.331 77.0195 182.572 82.8713 179.671C88.7231 176.77 93.7247 171.858 97.2437 165.555C100.763 159.253 102.641 151.843 102.641 144.263C102.631 134.102 99.2541 124.36 93.2503 117.175C87.2466 109.99 79.1064 105.948 70.6158 105.937Z" fill="#3F3D56"/>
<path d="M364.034 16.8547H253.678V17.8906H364.034V16.8547Z" fill="#3F3D56"/>
<path d="M493 290.316H175.779V291.352H493V290.316Z" fill="#3F3D56"/>
<path d="M193.739 337.964H83.3827V339H193.739V337.964Z" fill="#3F3D56"/>
<path d="M215.953 284.855H203.835V299.357H215.953V284.855Z" fill="#E6F288"/>
<path d="M223.31 291.07H208.596V273.461H223.31V291.07ZM209.235 290.305H222.67V274.227H209.235V290.305Z" fill="#3F3D56"/>
<path d="M356.603 11.3942H344.486V25.8959H356.603V11.3942Z" fill="#E6F288"/>
<path d="M363.96 17.6092H349.246V0H363.96V17.6092ZM349.886 16.8436H363.321V0.76562H349.886V16.8436Z" fill="#3F3D56"/>
<path d="M478.645 284.855H466.527V299.357H478.645V284.855Z" fill="#E6F288"/>
<path d="M486.002 291.07H471.288V273.461H486.002V291.07ZM471.927 290.305H485.362V274.227H471.927V290.305Z" fill="#3F3D56"/>
<path d="M457.513 120.135H456.484V86.3871C456.484 83.822 456.061 81.282 455.241 78.9122C454.421 76.5424 453.219 74.3891 451.703 72.5754C450.188 70.7616 448.388 69.3228 446.408 68.3412C444.428 67.3596 442.305 66.8544 440.162 66.8544H380.417C378.273 66.8544 376.151 67.3596 374.171 68.3412C372.19 69.3228 370.391 70.7616 368.876 72.5754C367.36 74.3891 366.158 76.5424 365.338 78.9122C364.517 81.282 364.095 83.822 364.095 86.3871V271.533C364.095 274.098 364.517 276.638 365.338 279.008C366.158 281.378 367.36 283.531 368.876 285.345C370.391 287.159 372.19 288.598 374.171 289.579C376.151 290.561 378.273 291.066 380.417 291.066H440.162C442.306 291.066 444.428 290.561 446.408 289.579C448.388 288.598 450.188 287.159 451.703 285.345C453.219 283.531 454.421 281.378 455.241 279.008C456.061 276.638 456.484 274.098 456.484 271.533V144.158H457.513V120.135Z" fill="#3F3D56"/>
<path d="M453.008 87.5351V272.411C453.008 276.28 451.725 279.991 449.439 282.727C447.154 285.463 444.054 287 440.821 287.001H380.787C377.554 287 374.454 285.463 372.169 282.727C369.883 279.991 368.6 276.28 368.6 272.411V87.5351C368.601 83.6671 369.885 79.9577 372.17 77.2227C374.455 74.4876 377.555 72.9509 380.787 72.9505H388.071C387.712 74.0027 387.575 75.1443 387.673 76.2746C387.77 77.405 388.097 78.4894 388.627 79.4324C389.157 80.3754 389.872 81.148 390.71 81.6822C391.548 82.2164 392.483 82.4958 393.433 82.4957H427.661C428.61 82.4958 429.545 82.2164 430.383 81.6822C431.221 81.1481 431.936 80.3754 432.466 79.4324C432.996 78.4894 433.324 77.405 433.421 76.2746C433.518 75.1443 433.381 74.0027 433.023 72.9505H440.821C444.053 72.9509 447.153 74.4876 449.438 77.2227C451.724 79.9577 453.008 83.6671 453.008 87.5351Z" fill="#E6F288"/>
<path d="M419.746 194.85H401.862V201.192H419.746V194.85Z" fill="#3F3D56"/>
<path d="M441.366 145.47H380.242V148.188H441.366V145.47Z" fill="#3F3D56"/>
<path d="M441.366 154.078H380.242V156.796H441.366V154.078Z" fill="#3F3D56"/>
<path d="M441.366 162.685H380.242V165.403H441.366V162.685Z" fill="#3F3D56"/>
<path d="M441.366 171.293H380.242V174.011H441.366V171.293Z" fill="#3F3D56"/>
<path d="M441.366 179.9H380.242V182.618H441.366V179.9Z" fill="#3F3D56"/>
<path d="M412.939 109.373H402.34V122.058H412.939V109.373Z" fill="#F2F2F2"/>
<path d="M406.398 112.545V127.948H419.268V112.545H406.398ZM418.71 127.28H406.956V113.213H418.71V127.28Z" fill="#3F3D56"/>
<path opacity="0.1" d="M453.008 252.668V272.411C453.008 276.28 451.725 279.991 449.439 282.727C447.154 285.463 444.054 287 440.821 287.001H380.787C377.554 287 374.454 285.463 372.169 282.727C369.883 279.991 368.6 276.28 368.6 272.411V172.862L419.178 220.682L420.044 221.5L429.452 230.392L430.331 231.226L453.008 252.668Z" fill="black"/>
<path d="M405.611 281.009C416.096 281.009 424.595 270.837 424.595 258.29C424.595 245.742 416.096 235.57 405.611 235.57C395.126 235.57 386.626 245.742 386.626 258.29C386.626 270.837 395.126 281.009 405.611 281.009Z" fill="#F2F2F2"/>
<path d="M138.561 339C131.114 339 123.835 336.357 117.643 331.406C111.451 326.455 106.626 319.418 103.776 311.184C100.926 302.951 100.18 293.891 101.633 285.151C103.086 276.41 106.672 268.381 111.938 262.08C117.203 255.778 123.912 251.487 131.215 249.748C138.519 248.009 146.089 248.902 152.969 252.312C159.849 255.723 165.729 261.498 169.867 268.908C174.004 276.318 176.212 285.029 176.212 293.941C176.201 305.887 172.23 317.34 165.172 325.788C158.113 334.235 148.543 338.986 138.561 339ZM138.561 249.918C131.285 249.918 124.173 252.5 118.124 257.337C112.075 262.175 107.36 269.05 104.575 277.094C101.791 285.138 101.063 293.99 102.482 302.53C103.902 311.069 107.405 318.913 112.55 325.07C117.694 331.227 124.249 335.42 131.384 337.118C138.52 338.817 145.916 337.945 152.638 334.613C159.36 331.281 165.105 325.639 169.147 318.399C173.189 311.159 175.346 302.648 175.346 293.941C175.335 282.27 171.456 271.08 164.56 262.827C157.664 254.574 148.314 249.931 138.561 249.918Z" fill="#3F3D56"/>
<path d="M411.207 275.814C406.499 275.814 401.897 274.143 397.983 271.013C394.068 267.883 391.018 263.434 389.216 258.229C387.414 253.024 386.943 247.297 387.861 241.771C388.78 236.246 391.047 231.17 394.376 227.186C397.705 223.202 401.946 220.489 406.563 219.39C411.18 218.291 415.966 218.855 420.315 221.011C424.665 223.167 428.382 226.818 430.997 231.503C433.613 236.187 435.009 241.695 435.009 247.328C435.002 254.881 432.492 262.121 428.029 267.461C423.567 272.802 417.517 275.805 411.207 275.814ZM411.207 219.879C406.67 219.879 402.235 221.489 398.463 224.505C394.692 227.521 391.752 231.808 390.016 236.824C388.28 241.84 387.825 247.359 388.71 252.684C389.595 258.008 391.78 262.899 394.988 266.738C398.195 270.577 402.282 273.192 406.732 274.251C411.181 275.31 415.793 274.766 419.984 272.689C424.175 270.611 427.757 267.093 430.278 262.579C432.798 258.065 434.143 252.757 434.143 247.328C434.137 240.051 431.718 233.074 427.418 227.928C423.118 222.782 417.288 219.887 411.207 219.879Z" fill="#3F3D56"/>
</g>
<defs>
<clipPath id="clip0">
<rect width="493" height="339" fill="white"/>
</clipPath>
</defs>
</svg>
