<svg width="438" height="388" viewBox="0 0 438 388" fill="none" xmlns="http://www.w3.org/2000/svg">
<g clip-path="url(#clip0)">
<path d="M191.434 320.896H8.67831C6.37747 320.893 4.17162 319.997 2.54468 318.404C0.917743 316.811 0.00258943 314.651 0 312.398V69.4774C0.00258944 67.2246 0.917743 65.0648 2.54468 63.4718C4.17162 61.8788 6.37747 60.9828 8.67831 60.9802H191.434C193.734 60.9828 195.94 61.8788 197.567 63.4718C199.194 65.0648 200.109 67.2246 200.112 69.4774V312.398C200.109 314.651 199.194 316.811 197.567 318.404C195.94 319.997 193.734 320.893 191.434 320.896Z" fill="white"/>
<path d="M91.8174 124.201C91.8174 131.217 89.5507 138.053 85.3415 143.731C81.1324 149.408 75.1968 153.637 68.3841 155.811C68.1804 155.874 67.9768 155.938 67.7699 155.998C66.8874 156.264 65.9926 156.49 65.0822 156.684C63.4348 157.034 61.7627 157.261 60.0802 157.364C59.349 157.412 58.6136 157.436 57.8739 157.436C54.0525 157.44 50.258 156.811 46.651 155.575C46.5461 155.539 46.4412 155.503 46.3394 155.466C40.4952 153.4 35.3424 149.802 31.4426 145.066C27.5427 140.329 25.0454 134.635 24.2227 128.605C23.4001 122.574 24.2836 116.439 26.7771 110.866C29.2706 105.293 33.2784 100.498 38.3638 97.0016C43.4491 93.5055 49.4169 91.4432 55.6168 91.0392C61.8168 90.6353 68.011 91.9053 73.5246 94.7108C79.0382 97.5164 83.6595 101.75 86.8851 106.95C90.1107 112.15 91.8168 118.117 91.8174 124.201V124.201Z" fill="white"/>
<path d="M57.0607 146.221C66.1816 146.221 73.5755 138.981 73.5755 130.05C73.5755 121.12 66.1816 113.88 57.0607 113.88C47.9399 113.88 40.546 121.12 40.546 130.05C40.546 138.981 47.9399 146.221 57.0607 146.221Z" fill="#E6F288"/>
<path d="M58.0248 138.763L58.042 138.159C56.8939 138.127 55.8817 138.057 55.1211 137.513C54.9054 137.35 54.7282 137.143 54.6014 136.907C54.4746 136.671 54.4012 136.411 54.3862 136.145C54.3729 135.982 54.398 135.818 54.4597 135.667C54.5214 135.515 54.618 135.379 54.7419 135.27C55.0293 135.099 55.3583 135.008 55.6944 135.005C56.0304 135.002 56.361 135.088 56.6514 135.254L57.162 135.483L56.1828 128.476L55.5714 128.558L56.4043 134.518C56.0634 134.394 55.6962 134.356 55.3363 134.407C54.9763 134.457 54.6351 134.596 54.3436 134.809C54.1475 134.976 53.9937 135.186 53.8941 135.421C53.7945 135.657 53.7519 135.912 53.7695 136.166C53.7876 136.524 53.8853 136.873 54.0559 137.19C54.2264 137.507 54.4658 137.784 54.757 138.001C55.7343 138.7 57.0043 138.735 58.0248 138.763Z" fill="#2F2E41"/>
<path d="M52.5476 129.072H49.2238V129.676H52.5476V129.072Z" fill="#2F2E41"/>
<path d="M63.0392 129.072H59.7154V129.676H63.0392V129.072Z" fill="#2F2E41"/>
<path d="M61.7527 152.656C61.7965 152.458 61.8193 152.255 61.8207 152.052C61.8194 151.291 61.5102 150.562 60.9607 150.024C60.4112 149.486 59.6663 149.183 58.8892 149.182H54.5691C53.7918 149.182 53.0466 149.485 52.497 150.023C51.9474 150.561 51.6383 151.291 51.6376 152.052C51.6375 152.256 51.6602 152.46 51.7054 152.659C50.0746 153.163 48.5331 153.91 47.1355 154.874C46.8639 155.058 46.5955 155.258 46.3394 155.466C46.4412 155.502 46.5461 155.539 46.651 155.575C50.258 156.811 54.0525 157.44 57.8739 157.436C58.6145 157.436 59.3499 157.412 60.0802 157.364C61.7627 157.261 63.4348 157.034 65.0822 156.684C65.9926 156.49 66.8874 156.264 67.7699 155.998C66.0239 154.486 63.9744 153.347 61.7527 152.656Z" fill="#2F2E41"/>
<path d="M61.1973 156.98C60.7968 157.009 60.4114 157.141 60.0802 157.364C61.7627 157.261 63.4348 157.034 65.0822 156.684L61.1973 156.98Z" fill="#2F2E41"/>
<path d="M72.0386 126.209L43.349 115.933C43.0416 115.823 42.7914 115.597 42.6535 115.307C42.5157 115.016 42.5014 114.684 42.6139 114.383L42.7109 113.933C44.9515 107.936 52.378 104.162 58.5027 106.356L67.3311 109.518C73.4558 111.712 76.1178 118.813 73.8772 124.81L73.6218 125.489C73.5093 125.79 73.2793 126.035 72.9824 126.17C72.6855 126.305 72.346 126.319 72.0386 126.209Z" fill="#2F2E41"/>
<path d="M73.584 126.779C33.5963 128.224 30.1023 123.305 42.2862 115.569L44.871 110.912L74.4944 121.487L73.584 126.779Z" fill="#2F2E41"/>
<path d="M65.7432 108.781C65.964 108.062 65.0183 107.148 63.6311 106.739C62.2438 106.331 60.9402 106.583 60.7194 107.302C60.4987 108.021 61.4443 108.935 62.8316 109.344C64.2188 109.752 65.5224 109.5 65.7432 108.781Z" fill="#2F2E41"/>
<path d="M57.8739 158.343C53.9483 158.347 50.0502 157.7 46.3449 156.43L46.0228 156.318C38.2615 153.572 31.7465 148.219 27.6366 141.212C23.5266 134.205 22.0881 125.998 23.5768 118.05C25.0655 110.102 29.385 102.929 35.7671 97.8059C42.1491 92.683 50.18 89.9424 58.4315 90.0717C66.6831 90.2009 74.6204 93.1915 80.8318 98.5116C87.0433 103.832 91.1263 111.137 92.3546 119.127C93.583 127.117 91.8772 135.275 87.5405 142.15C83.2038 149.025 76.5173 154.171 68.6703 156.673C68.451 156.741 68.2445 156.805 68.0348 156.867C67.1584 157.131 66.2285 157.368 65.2784 157.569C63.5851 157.929 61.8664 158.163 60.1371 158.268C59.3941 158.317 58.6308 158.343 57.8739 158.343ZM57.8739 91.8723C50.1043 91.8734 42.5839 94.5568 36.6354 99.4507C30.6869 104.345 26.6912 111.135 25.3511 118.629C24.0111 126.122 25.4124 133.838 29.3087 140.42C33.2051 147.002 39.3468 152.028 46.6538 154.614L46.9595 154.72C50.4673 155.922 54.1576 156.534 57.8739 156.53C58.5894 156.53 59.3107 156.506 60.0178 156.459C61.6554 156.359 63.2829 156.138 64.8865 155.798C65.7852 155.607 66.6638 155.383 67.4977 155.132C67.7042 155.071 67.9002 155.01 68.0963 154.949C75.5702 152.566 81.9306 147.65 86.0342 141.086C90.1378 134.522 91.7155 126.739 90.4837 119.138C89.2518 111.537 85.2912 104.615 79.3138 99.6176C73.3364 94.6197 65.7342 91.8733 57.8739 91.8723Z" fill="#CCCCCC"/>
<path d="M191.434 320.896H8.67831C6.37747 320.893 4.17162 319.997 2.54468 318.404C0.917743 316.811 0.00258943 314.651 0 312.398V69.4774C0.00258944 67.2246 0.917743 65.0648 2.54468 63.4718C4.17162 61.8788 6.37747 60.9828 8.67831 60.9802H191.434C193.734 60.9828 195.94 61.8788 197.567 63.4718C199.194 65.0648 200.109 67.2246 200.112 69.4774V312.398C200.109 314.651 199.194 316.811 197.567 318.404C195.94 319.997 193.734 320.893 191.434 320.896ZM8.67831 61.9799C6.64817 61.9822 4.70184 62.7728 3.26631 64.1784C1.83078 65.5839 1.02328 67.4897 1.02098 69.4774V312.398C1.02328 314.386 1.83076 316.292 3.26629 317.697C4.70182 319.103 6.64817 319.894 8.67831 319.896H191.434C193.464 319.894 195.41 319.103 196.846 317.697C198.281 316.292 199.089 314.386 199.091 312.398V69.4774C199.089 67.4897 198.281 65.5839 196.846 64.1784C195.41 62.7728 193.464 61.9822 191.434 61.9799H8.67831Z" fill="#CCCCCC"/>
<path d="M156.054 124.072H104.341C103.257 124.07 102.217 123.648 101.451 122.897C100.685 122.146 100.255 121.127 100.255 120.066C100.255 119.004 100.685 117.986 101.451 117.235C102.217 116.484 103.257 116.061 104.341 116.06H156.054C156.592 116.06 157.124 116.163 157.621 116.364C158.118 116.565 158.57 116.86 158.95 117.232C159.331 117.604 159.633 118.045 159.839 118.532C160.044 119.018 160.15 119.539 160.15 120.066C160.15 120.592 160.044 121.114 159.839 121.6C159.633 122.086 159.331 122.528 158.95 122.9C158.57 123.272 158.118 123.567 157.621 123.768C157.124 123.969 156.592 124.072 156.054 124.072Z" fill="#E6E6E6"/>
<path d="M172.93 137.591H104.341C103.257 137.59 102.217 137.167 101.451 136.416C100.685 135.665 100.255 134.647 100.255 133.585C100.255 132.524 100.685 131.506 101.451 130.755C102.217 130.003 103.257 129.581 104.341 129.58H172.93C174.014 129.581 175.054 130.003 175.82 130.755C176.586 131.506 177.016 132.524 177.016 133.585C177.016 134.647 176.586 135.665 175.82 136.416C175.054 137.167 174.014 137.59 172.93 137.591Z" fill="#E6E6E6"/>
<path d="M155.979 189.444H27.1817C26.644 189.444 26.1114 189.341 25.6145 189.14C25.1176 188.939 24.666 188.644 24.2855 188.272C23.9051 187.9 23.6033 187.458 23.3974 186.972C23.1915 186.486 23.0855 185.964 23.0855 185.438C23.0855 184.911 23.1915 184.39 23.3974 183.904C23.6033 183.417 23.9051 182.976 24.2855 182.604C24.666 182.232 25.1176 181.937 25.6145 181.736C26.1114 181.535 26.644 181.431 27.1817 181.432H155.979C157.063 181.433 158.102 181.856 158.869 182.607C159.635 183.358 160.065 184.376 160.065 185.438C160.065 186.499 159.635 187.518 158.869 188.269C158.102 189.02 157.063 189.442 155.979 189.444Z" fill="#E6E6E6"/>
<path d="M172.855 202.963H27.1817C26.644 202.964 26.1114 202.861 25.6145 202.66C25.1176 202.459 24.666 202.164 24.2855 201.792C23.9051 201.42 23.6033 200.978 23.3974 200.491C23.1915 200.005 23.0855 199.484 23.0855 198.957C23.0855 198.431 23.1915 197.91 23.3974 197.423C23.6033 196.937 23.9051 196.495 24.2855 196.123C24.666 195.751 25.1176 195.456 25.6145 195.255C26.1114 195.054 26.644 194.951 27.1817 194.952H172.855C173.393 194.951 173.925 195.054 174.422 195.255C174.919 195.456 175.371 195.751 175.751 196.123C176.131 196.495 176.433 196.937 176.639 197.423C176.845 197.91 176.951 198.431 176.951 198.957C176.951 199.484 176.845 200.005 176.639 200.491C176.433 200.978 176.131 201.42 175.751 201.792C175.371 202.164 174.919 202.459 174.422 202.66C173.925 202.861 173.393 202.964 172.855 202.963Z" fill="#E6E6E6"/>
<path d="M155.979 234.036H27.1817C26.0967 234.036 25.0561 233.614 24.2888 232.863C23.5216 232.111 23.0906 231.092 23.0906 230.03C23.0906 228.968 23.5216 227.949 24.2888 227.198C25.0561 226.446 26.0967 226.024 27.1817 226.024H155.979C157.064 226.024 158.105 226.446 158.872 227.198C159.639 227.949 160.07 228.968 160.07 230.03C160.07 231.092 159.639 232.111 158.872 232.863C158.105 233.614 157.064 234.036 155.979 234.036Z" fill="#E6E6E6"/>
<path d="M172.855 247.555H27.1817C26.0967 247.555 25.0561 247.133 24.2888 246.382C23.5216 245.631 23.0906 244.612 23.0906 243.549C23.0906 242.487 23.5216 241.468 24.2888 240.717C25.0561 239.966 26.0967 239.544 27.1817 239.544H172.855C173.94 239.544 174.98 239.966 175.748 240.717C176.515 241.468 176.946 242.487 176.946 243.549C176.946 244.612 176.515 245.631 175.748 246.382C174.98 247.133 173.94 247.555 172.855 247.555Z" fill="#E6E6E6"/>
<path d="M155.979 278.628H27.1817C26.0967 278.628 25.0561 278.206 24.2888 277.455C23.5216 276.704 23.0906 275.685 23.0906 274.622C23.0906 273.56 23.5216 272.541 24.2888 271.79C25.0561 271.039 26.0967 270.617 27.1817 270.617H155.979C157.064 270.617 158.105 271.039 158.872 271.79C159.639 272.541 160.07 273.56 160.07 274.622C160.07 275.685 159.639 276.704 158.872 277.455C158.105 278.206 157.064 278.628 155.979 278.628Z" fill="#E6E6E6"/>
<path d="M172.855 292.147H27.1817C26.0967 292.147 25.0561 291.725 24.2888 290.974C23.5216 290.223 23.0906 289.204 23.0906 288.142C23.0906 287.079 23.5216 286.06 24.2888 285.309C25.0561 284.558 26.0967 284.136 27.1817 284.136H172.855C173.94 284.136 174.98 284.558 175.748 285.309C176.515 286.06 176.946 287.079 176.946 288.142C176.946 289.204 176.515 290.223 175.748 290.974C174.98 291.725 173.94 292.147 172.855 292.147Z" fill="#E6E6E6"/>
<path d="M429.322 259.915L246.566 259.915C244.266 259.913 242.06 259.017 240.433 257.424C238.806 255.831 237.891 253.671 237.888 251.418L237.888 8.49739C237.891 6.24456 238.806 4.08473 240.433 2.49173C242.06 0.898741 244.265 0.00267767 246.566 0.000140636L429.321 0C431.622 0.00253377 433.828 0.898584 435.455 2.49157C437.082 4.08456 437.997 6.2444 438 8.49723L438 251.418C437.997 253.671 437.082 255.831 435.455 257.424C433.828 259.017 431.622 259.913 429.322 259.915Z" fill="white"/>
<path d="M429.322 259.915L246.566 259.915C244.266 259.913 242.06 259.017 240.433 257.424C238.806 255.831 237.891 253.671 237.888 251.418L237.888 8.49739C237.891 6.24456 238.806 4.08473 240.433 2.49173C242.06 0.898741 244.265 0.00267767 246.566 0.000140636L429.321 0C431.622 0.00253377 433.828 0.898584 435.455 2.49157C437.082 4.08456 437.997 6.2444 438 8.49723L438 251.418C437.997 253.671 437.082 255.831 435.455 257.424C433.828 259.017 431.622 259.913 429.322 259.915ZM246.566 0.999815C244.536 1.00207 242.59 1.79272 241.154 3.1983C239.719 4.60387 238.911 6.5096 238.909 8.49739L238.909 251.418C238.911 253.406 239.719 255.312 241.154 256.717C242.59 258.123 244.536 258.914 246.566 258.916L429.322 258.916C431.352 258.913 433.298 258.123 434.734 256.717C436.169 255.312 436.977 253.406 436.979 251.418L436.979 8.49724C436.977 6.50945 436.169 4.60372 434.733 3.19815C433.298 1.79257 431.352 1.00193 429.321 0.999675L246.566 0.999815Z" fill="#CCCCCC"/>
<path d="M329.791 62.8897C329.791 69.463 327.8 75.8887 324.071 81.3542C320.341 86.8197 315.04 91.0795 308.837 93.595C302.635 96.1105 295.81 96.7687 289.226 95.4863C282.641 94.2039 276.593 91.0386 271.846 86.3906C267.099 81.7425 263.866 75.8206 262.556 69.3736C261.247 62.9266 261.919 56.2442 264.488 50.1712C267.057 44.0983 271.408 38.9077 276.99 35.2557C282.572 31.6038 289.134 29.6546 295.848 29.6546C304.849 29.6574 313.481 33.1598 319.846 39.392C326.211 45.6242 329.788 54.0761 329.791 62.8897Z" fill="white"/>
<path d="M311.536 68.5766C311.165 89.8323 278.874 89.829 278.506 68.576C278.877 47.321 311.168 47.3243 311.536 68.5766Z" fill="#E6F288"/>
<path d="M294.365 75.1741L294.348 74.5698C298.602 75.1259 299.518 69.9642 295.228 71.8939L296.207 64.8872L296.819 64.9693L295.986 70.9294C300.503 70.2711 298.832 75.778 294.365 75.1741Z" fill="#2F2E41"/>
<path d="M303.167 65.4832H299.843V66.0875H303.167V65.4832Z" fill="#2F2E41"/>
<path d="M292.675 65.4833H289.351V66.0876H292.675V65.4833Z" fill="#2F2E41"/>
<path d="M300.375 91.1849C301.023 86.9036 295.903 87.7496 293.194 87.7073C292.757 87.7087 292.326 87.8054 291.932 87.9905C291.538 88.1755 291.192 88.4443 290.917 88.7772C290.643 89.11 290.448 89.4986 290.346 89.9146C290.245 90.3306 290.239 90.7636 290.33 91.1819C288.233 91.8166 286.292 92.8655 284.625 94.2637C291.649 96.6619 299.281 96.7447 306.358 94.4994C304.633 92.9825 302.591 91.8515 300.375 91.1849Z" fill="#2F2E41"/>
<path d="M287.257 60.9286C290.317 59.1966 294.029 60.5253 297.19 61.2518C303.189 63.0572 311.6 60.7964 312.329 53.8003C313.088 47.2938 303.998 43.6675 301.092 50.1433L301.938 50.0351C292.516 36.3234 276.125 36.8435 276.232 55.6946C276.197 56.2769 277.123 56.275 277.158 55.6942C276.811 44.5855 284.32 36.992 294.934 44.1309C297.304 45.9479 299.394 48.0906 301.139 50.4926C302.245 51.7055 302.485 46.4819 307.775 47.8501C313.598 50.0587 311.698 58.222 306.494 60.0141C300.063 63.2307 293.099 56.9941 286.789 60.1455C286.688 60.2083 286.615 60.3073 286.587 60.4216C286.558 60.5358 286.576 60.6565 286.637 60.758C286.697 60.8596 286.796 60.9342 286.912 60.966C287.027 60.9978 287.151 60.9844 287.257 60.9286Z" fill="#2F2E41"/>
<path d="M295.848 97.0313C287.082 97.0241 278.641 93.7819 272.209 87.9513C265.777 82.1208 261.825 74.1304 261.143 65.5737C260.461 57.0171 263.098 48.5231 268.528 41.7857C273.958 35.0483 281.783 30.5627 290.441 29.2235C299.099 27.8843 307.955 29.79 315.242 34.5604C322.529 39.3308 327.711 46.6154 329.756 54.9613C331.8 63.3073 330.557 72.1012 326.273 79.5892C321.99 87.0772 314.981 92.709 306.644 95.3614C303.158 96.4716 299.514 97.0352 295.848 97.0313ZM295.848 30.561C289.316 30.5601 282.931 32.4558 277.5 36.0083C272.068 39.5607 267.835 44.6105 265.335 50.5188C262.835 56.4271 262.181 62.9287 263.455 69.2011C264.729 75.4736 267.874 81.2353 272.493 85.7575C277.111 90.2796 282.996 93.3592 289.402 94.6066C295.808 95.854 302.448 95.2133 308.482 92.7655C314.517 90.3177 319.674 86.1728 323.302 80.8549C326.93 75.537 328.866 69.285 328.865 62.8897C328.856 54.3186 325.374 46.1013 319.184 40.0406C312.994 33.9799 304.602 30.5707 295.848 30.561Z" fill="#CCCCCC"/>
<path d="M393.942 63.0915L342.229 63.0915C341.144 63.0915 340.103 62.6695 339.336 61.9182C338.569 61.167 338.138 60.1481 338.138 59.0857C338.138 58.0234 338.569 57.0045 339.336 56.2533C340.103 55.502 341.144 55.08 342.229 55.08L393.942 55.08C395.027 55.08 396.068 55.502 396.835 56.2532C397.602 57.0044 398.033 58.0233 398.033 59.0857C398.033 60.1481 397.602 61.167 396.835 61.9182C396.068 62.6694 395.027 63.0915 393.942 63.0915Z" fill="#E6E6E6"/>
<path d="M410.818 76.6109L342.229 76.6109C341.691 76.6116 341.159 76.5084 340.662 76.3074C340.165 76.1064 339.713 75.8115 339.333 75.4394C338.952 75.0674 338.65 74.6256 338.445 74.1393C338.239 73.6529 338.133 73.1316 338.133 72.6052C338.133 72.0787 338.239 71.5574 338.445 71.0711C338.65 70.5848 338.952 70.143 339.333 69.7709C339.713 69.3989 340.165 69.1039 340.662 68.9029C341.159 68.7019 341.691 68.5988 342.229 68.5994L410.818 68.5994C411.903 68.5994 412.944 69.0214 413.711 69.7726C414.478 70.5238 414.909 71.5427 414.909 72.6051C414.909 73.6675 414.478 74.6864 413.711 75.4376C412.944 76.1888 411.903 76.6109 410.818 76.6109Z" fill="#E6E6E6"/>
<path d="M393.867 128.463L265.07 128.464C263.986 128.462 262.946 128.04 262.18 127.289C261.414 126.537 260.984 125.519 260.984 124.458C260.984 123.396 261.414 122.378 262.18 121.627C262.946 120.876 263.986 120.453 265.07 120.452L393.867 120.452C394.952 120.452 395.993 120.874 396.76 121.625C397.527 122.376 397.958 123.395 397.958 124.458C397.958 125.52 397.527 126.539 396.76 127.29C395.993 128.041 394.952 128.463 393.867 128.463Z" fill="#E6E6E6"/>
<path d="M410.743 141.983L265.07 141.983C264.532 141.984 263.999 141.88 263.503 141.679C263.006 141.478 262.554 141.183 262.174 140.811C261.793 140.439 261.491 139.998 261.285 139.511C261.079 139.025 260.974 138.504 260.974 137.977C260.974 137.451 261.079 136.929 261.285 136.443C261.491 135.957 261.793 135.515 262.174 135.143C262.554 134.771 263.006 134.476 263.503 134.275C263.999 134.074 264.532 133.971 265.07 133.971L410.743 133.971C411.828 133.971 412.869 134.393 413.636 135.145C414.403 135.896 414.834 136.915 414.834 137.977C414.834 139.039 414.403 140.058 413.636 140.81C412.869 141.561 411.828 141.983 410.743 141.983Z" fill="#E6E6E6"/>
<path d="M393.867 173.056L265.07 173.056C263.986 173.054 262.946 172.632 262.18 171.881C261.414 171.13 260.984 170.112 260.984 169.05C260.984 167.988 261.414 166.97 262.18 166.219C262.946 165.468 263.986 165.046 265.07 165.044L393.867 165.044C394.952 165.044 395.993 165.466 396.76 166.217C397.527 166.969 397.958 167.988 397.958 169.05C397.958 170.112 397.527 171.131 396.76 171.882C395.993 172.634 394.952 173.056 393.867 173.056Z" fill="#E6E6E6"/>
<path d="M410.743 186.575L265.07 186.575C264.532 186.576 264 186.473 263.503 186.272C263.006 186.071 262.554 185.776 262.174 185.404C261.793 185.032 261.491 184.59 261.285 184.104C261.08 183.617 260.974 183.096 260.974 182.569C260.974 182.043 261.08 181.522 261.285 181.035C261.491 180.549 261.793 180.107 262.174 179.735C262.554 179.363 263.006 179.068 263.503 178.867C264 178.666 264.532 178.563 265.07 178.564L410.743 178.564C411.828 178.564 412.869 178.986 413.636 179.737C414.403 180.488 414.834 181.507 414.834 182.569C414.834 183.632 414.403 184.651 413.636 185.402C412.869 186.153 411.828 186.575 410.743 186.575Z" fill="#E6E6E6"/>
<path d="M393.867 217.648L265.07 217.648C263.985 217.648 262.944 217.226 262.177 216.475C261.41 215.723 260.979 214.705 260.979 213.642C260.979 212.58 261.41 211.561 262.177 210.81C262.944 210.058 263.985 209.636 265.07 209.636L393.867 209.636C394.952 209.636 395.993 210.058 396.76 210.81C397.527 211.561 397.958 212.58 397.958 213.642C397.958 214.705 397.527 215.723 396.76 216.475C395.993 217.226 394.952 217.648 393.867 217.648Z" fill="#E6E6E6"/>
<path d="M410.743 231.167L265.07 231.167C263.985 231.167 262.944 230.745 262.177 229.994C261.41 229.243 260.979 228.224 260.979 227.162C260.979 226.099 261.41 225.08 262.177 224.329C262.944 223.578 263.985 223.156 265.07 223.156L410.743 223.156C411.828 223.156 412.869 223.578 413.636 224.329C414.403 225.08 414.834 226.099 414.834 227.162C414.834 228.224 414.403 229.243 413.636 229.994C412.869 230.745 411.828 231.167 410.743 231.167Z" fill="#E6E6E6"/>
<path d="M319.056 364.381H136.301C134 364.379 131.794 363.483 130.167 361.89C128.54 360.297 127.625 358.137 127.622 355.884V112.963C127.625 110.71 128.54 108.551 130.167 106.958C131.794 105.365 134 104.469 136.301 104.466H319.056C321.357 104.469 323.563 105.365 325.189 106.958C326.816 108.551 327.732 110.71 327.734 112.963V355.884C327.732 358.137 326.816 360.297 325.189 361.89C323.563 363.483 321.357 364.379 319.056 364.381Z" fill="white"/>
<path d="M151.543 167.004C151.537 171.378 152.416 175.71 154.129 179.75C155.841 183.791 158.354 187.459 161.522 190.543C161.788 190.8 162.059 191.057 162.334 191.308C163.988 192.821 165.793 194.168 167.722 195.329C168.092 195.553 168.462 195.767 168.842 195.976C170.792 197.052 172.847 197.935 174.976 198.613C175.343 198.731 175.717 198.843 176.09 198.946C182.858 200.846 190.061 200.648 196.709 198.378C196.839 198.332 196.968 198.287 197.095 198.242C202.931 196.163 208.073 192.556 211.961 187.814C215.848 183.073 218.333 177.378 219.145 171.349C219.956 165.321 219.063 159.19 216.562 153.624C214.062 148.058 210.05 143.27 204.963 139.782C199.877 136.293 193.91 134.238 187.713 133.84C181.516 133.442 175.326 134.715 169.818 137.522C164.309 140.33 159.692 144.563 156.47 149.761C153.248 154.959 151.543 160.923 151.543 167.004Z" fill="white"/>
<path d="M178.318 183.294C178.335 185.868 177.365 188.356 175.601 190.266C173.856 192.141 171.258 193.385 168.636 192.87C166.221 192.396 164.26 190.33 164.504 187.831C164.545 187.289 164.706 186.763 164.975 186.289C165.245 185.814 165.617 185.403 166.065 185.084C166.514 184.765 167.028 184.546 167.572 184.441C168.116 184.336 168.677 184.349 169.215 184.478C171.509 185.061 172.423 188.298 170.511 189.817C170.053 190.181 169.394 189.544 169.857 189.176C170.142 188.92 170.358 188.599 170.483 188.241C170.609 187.883 170.641 187.499 170.576 187.126C170.511 186.753 170.352 186.401 170.112 186.104C169.873 185.806 169.561 185.573 169.205 185.424C168.785 185.292 168.34 185.256 167.904 185.318C167.468 185.379 167.052 185.537 166.687 185.779C166.323 186.022 166.019 186.342 165.8 186.716C165.58 187.091 165.451 187.509 165.421 187.939C165.269 190.046 166.918 191.633 168.94 192.007C171.127 192.411 173.295 191.315 174.778 189.802C176.476 188.045 177.413 185.713 177.392 183.294C177.396 183.176 177.447 183.065 177.533 182.983C177.62 182.901 177.735 182.855 177.855 182.855C177.975 182.855 178.091 182.901 178.177 182.983C178.264 183.065 178.314 183.176 178.318 183.294V183.294Z" fill="#2F2E41"/>
<path d="M187.358 189.056C196.478 189.056 203.872 181.816 203.872 172.886C203.872 163.955 196.478 156.715 187.358 156.715C178.237 156.715 170.843 163.955 170.843 172.886C170.843 181.816 178.237 189.056 187.358 189.056Z" fill="#E6F288"/>
<path d="M186.513 179.785L186.495 179.181C187.644 179.15 188.656 179.079 189.416 178.535C189.632 178.372 189.809 178.165 189.936 177.929C190.063 177.693 190.136 177.433 190.151 177.167C190.165 177.004 190.139 176.841 190.078 176.689C190.016 176.537 189.919 176.401 189.796 176.292C189.508 176.122 189.179 176.03 188.843 176.027C188.507 176.024 188.176 176.11 187.886 176.276L187.375 176.505L188.355 169.498L188.966 169.58L188.133 175.54C188.474 175.417 188.841 175.378 189.201 175.429C189.561 175.48 189.902 175.618 190.194 175.831C190.39 175.998 190.544 176.208 190.643 176.444C190.743 176.679 190.786 176.934 190.768 177.188C190.75 177.546 190.652 177.896 190.482 178.213C190.311 178.53 190.072 178.806 189.78 179.023C188.803 179.722 187.533 179.757 186.513 179.785Z" fill="#2F2E41"/>
<path d="M195.314 170.094H191.99V170.699H195.314V170.094Z" fill="#2F2E41"/>
<path d="M184.822 170.094H181.498V170.699H184.822V170.094Z" fill="#2F2E41"/>
<path d="M176.09 198.946C182.858 200.846 190.061 200.648 196.709 198.378C196.839 198.332 196.968 198.287 197.095 198.242C195.528 197.058 193.757 196.162 191.865 195.595C191.998 195.13 191.996 194.638 191.858 194.175C191.671 193.587 191.295 193.075 190.786 192.713C190.278 192.352 189.663 192.161 189.035 192.169H185.011C184.384 192.16 183.77 192.351 183.263 192.712C182.755 193.073 182.38 193.585 182.194 194.172C182.056 194.636 182.054 195.129 182.188 195.595C180.521 196.095 178.946 196.85 177.522 197.834C177.235 198.03 176.957 198.236 176.689 198.45C176.485 198.61 176.285 198.776 176.09 198.946Z" fill="#2F2E41"/>
<path d="M200.295 171.17C200.295 173.895 201.665 176.155 203.446 176.548C203.627 176.588 203.812 176.608 203.998 176.609C206.038 176.609 207.701 174.17 207.701 171.17C207.747 169.623 207.243 168.109 206.275 166.886C205.974 166.529 205.604 166.234 205.186 166.019C204.819 165.831 204.412 165.733 203.998 165.732C203.43 165.739 202.878 165.92 202.421 166.251C201.165 167.121 200.295 168.998 200.295 171.17Z" fill="#3F3D56"/>
<path d="M167.277 171.17C167.277 173.515 168.289 175.515 169.709 176.279C170.097 176.492 170.535 176.606 170.98 176.609C171.079 176.609 171.178 176.603 171.276 176.59C173.177 176.37 174.683 174.025 174.683 171.17C174.683 168.883 173.717 166.922 172.353 166.121C171.941 165.871 171.466 165.736 170.98 165.732C170.566 165.733 170.159 165.831 169.792 166.019C169.373 166.235 169.002 166.531 168.7 166.889C167.735 168.112 167.232 169.625 167.277 171.17Z" fill="#3F3D56"/>
<path d="M169.94 175.758C170.013 175.758 170.086 175.741 170.151 175.708C170.216 175.675 170.273 175.627 170.316 175.569C170.359 175.51 170.387 175.443 170.397 175.372C170.408 175.301 170.402 175.228 170.378 175.16C169.494 172.584 169.228 169.843 169.601 167.15C169.974 164.457 170.976 161.885 172.53 159.633C174.083 157.381 176.146 155.51 178.558 154.166C180.97 152.821 183.666 152.04 186.437 151.881C189.208 151.723 191.978 152.193 194.534 153.253C197.089 154.314 199.36 155.937 201.17 157.997C202.981 160.057 204.282 162.497 204.972 165.13C205.663 167.762 205.724 170.514 205.151 173.173C205.126 173.291 205.15 173.413 205.217 173.514C205.284 173.614 205.389 173.685 205.509 173.709C205.629 173.734 205.754 173.711 205.857 173.646C205.959 173.58 206.031 173.478 206.057 173.36C206.659 170.565 206.595 167.671 205.87 164.903C205.144 162.136 203.776 159.569 201.873 157.404C199.97 155.238 197.582 153.531 194.895 152.416C192.209 151.301 189.295 150.807 186.382 150.974C183.469 151.14 180.634 151.962 178.099 153.376C175.563 154.789 173.394 156.757 171.761 159.124C170.128 161.492 169.074 164.197 168.682 167.028C168.29 169.86 168.571 172.741 169.501 175.449C169.532 175.539 169.591 175.617 169.67 175.673C169.749 175.728 169.843 175.758 169.94 175.758Z" fill="#3F3D56"/>
<path d="M195.654 162.409C195.928 162.847 196.042 163.363 195.977 163.873C195.912 164.382 195.672 164.855 195.296 165.214C194.4 166.195 192.97 166.257 191.729 166.075C190.336 165.87 188.858 165.231 187.448 165.662C186.246 166.029 185.388 167.097 184.139 167.365C183.032 167.602 181.708 167.288 181.319 166.132C181.133 165.576 182.026 165.338 182.212 165.891C182.463 166.639 183.548 166.624 184.169 166.417C185.165 166.085 185.932 165.277 186.911 164.892C188.077 164.538 189.326 164.541 190.491 164.901C191.598 165.145 192.873 165.507 193.976 165.051C194.792 164.714 195.442 163.651 194.854 162.866C194.502 162.395 195.305 161.942 195.654 162.409V162.409Z" fill="#2F2E41"/>
<path d="M185.486 201.145C182.221 201.148 178.972 200.7 175.834 199.816C175.465 199.715 175.077 199.6 174.688 199.475C172.502 198.778 170.391 197.87 168.388 196.765C168.012 196.559 167.635 196.341 167.236 196.101C165.255 194.908 163.401 193.524 161.702 191.97C161.421 191.714 161.143 191.451 160.872 191.188C155.527 185.971 152.056 179.196 150.979 171.881C149.903 164.567 151.28 157.108 154.903 150.625C158.526 144.142 164.199 138.986 171.071 135.93C177.943 132.874 185.642 132.084 193.012 133.678C200.382 135.272 207.024 139.165 211.941 144.772C216.858 150.378 219.784 157.395 220.28 164.769C220.776 172.143 218.815 179.476 214.691 185.665C210.568 191.855 204.504 196.567 197.411 199.094C197.284 199.139 197.152 199.185 197.021 199.231C193.314 200.502 189.414 201.149 185.486 201.145ZM185.486 134.675C178.952 134.675 172.564 136.574 167.132 140.131C161.7 143.688 157.468 148.743 154.972 154.657C152.476 160.57 151.828 167.075 153.111 173.35C154.393 179.624 157.548 185.384 162.176 189.901C162.432 190.149 162.697 190.4 162.965 190.645C164.575 192.117 166.331 193.427 168.207 194.557C168.584 194.785 168.94 194.99 169.295 195.185C171.192 196.232 173.191 197.091 175.262 197.751C175.629 197.869 175.991 197.977 176.34 198.073C182.926 199.923 189.934 199.731 196.403 197.522L196.777 197.39C204.072 194.79 210.198 189.757 214.08 183.174C217.961 176.592 219.35 168.88 218.003 161.395C216.655 153.909 212.657 147.128 206.71 142.241C200.764 137.355 193.249 134.676 185.486 134.675L185.486 134.675Z" fill="#CCCCCC"/>
<path d="M319.056 364.381H136.301C134 364.379 131.794 363.483 130.167 361.89C128.54 360.297 127.625 358.137 127.622 355.884V112.963C127.625 110.71 128.54 108.551 130.167 106.958C131.794 105.365 134 104.469 136.301 104.466H319.056C321.357 104.469 323.563 105.365 325.189 106.958C326.816 108.551 327.732 110.71 327.734 112.963V355.884C327.732 358.137 326.816 360.297 325.189 361.89C323.563 363.483 321.357 364.379 319.056 364.381ZM136.301 105.466C134.271 105.468 132.324 106.259 130.889 107.664C129.453 109.07 128.646 110.975 128.643 112.963V355.884C128.646 357.872 129.453 359.778 130.889 361.183C132.324 362.589 134.271 363.379 136.301 363.382H319.056C321.086 363.379 323.032 362.589 324.468 361.183C325.903 359.778 326.711 357.872 326.713 355.884V112.963C326.711 110.976 325.903 109.07 324.468 107.664C323.032 106.259 321.086 105.468 319.056 105.466H136.301Z" fill="#3F3D56"/>
<path d="M283.677 167.558H231.963C230.878 167.558 229.838 167.135 229.07 166.384C228.303 165.633 227.872 164.614 227.872 163.552C227.872 162.489 228.303 161.47 229.07 160.719C229.838 159.968 230.878 159.546 231.963 159.546H283.677C284.762 159.546 285.802 159.968 286.569 160.719C287.337 161.47 287.768 162.489 287.768 163.552C287.768 164.614 287.337 165.633 286.569 166.384C285.802 167.135 284.762 167.558 283.677 167.558Z" fill="#E6F288"/>
<path d="M300.552 181.077H231.963C230.878 181.077 229.838 180.655 229.07 179.904C228.303 179.152 227.872 178.134 227.872 177.071C227.872 176.009 228.303 174.99 229.07 174.239C229.838 173.487 230.878 173.065 231.963 173.065H300.552C301.638 173.065 302.678 173.487 303.445 174.239C304.213 174.99 304.644 176.009 304.644 177.071C304.644 178.134 304.213 179.152 303.445 179.904C302.678 180.655 301.638 181.077 300.552 181.077Z" fill="#E6F288"/>
<path d="M283.601 232.929H154.804C153.719 232.929 152.678 232.507 151.911 231.756C151.144 231.005 150.713 229.986 150.713 228.924C150.713 227.861 151.144 226.842 151.911 226.091C152.678 225.34 153.719 224.918 154.804 224.918H283.601C284.686 224.918 285.727 225.34 286.494 226.091C287.261 226.842 287.692 227.861 287.692 228.924C287.692 229.986 287.261 231.005 286.494 231.756C285.727 232.507 284.686 232.929 283.601 232.929Z" fill="#CCCCCC"/>
<path d="M300.477 246.449H154.804C153.719 246.449 152.678 246.027 151.911 245.276C151.144 244.524 150.713 243.506 150.713 242.443C150.713 241.381 151.144 240.362 151.911 239.611C152.678 238.859 153.719 238.437 154.804 238.437H300.477C301.562 238.437 302.603 238.859 303.37 239.611C304.137 240.362 304.568 241.381 304.568 242.443C304.568 243.506 304.137 244.524 303.37 245.276C302.603 246.027 301.562 246.449 300.477 246.449Z" fill="#CCCCCC"/>
<path d="M283.601 277.522H154.804C153.72 277.52 152.681 277.098 151.914 276.347C151.148 275.596 150.718 274.577 150.718 273.516C150.718 272.454 151.148 271.436 151.914 270.685C152.681 269.934 153.72 269.511 154.804 269.51H283.601C284.686 269.51 285.727 269.932 286.494 270.683C287.261 271.435 287.692 272.454 287.692 273.516C287.692 274.578 287.261 275.597 286.494 276.348C285.727 277.1 284.686 277.522 283.601 277.522Z" fill="#CCCCCC"/>
<path d="M300.477 291.041H154.804C153.72 291.04 152.681 290.617 151.914 289.866C151.148 289.115 150.718 288.097 150.718 287.035C150.718 285.974 151.148 284.956 151.914 284.205C152.681 283.453 153.72 283.031 154.804 283.03H300.477C301.562 283.03 302.603 283.452 303.37 284.203C304.137 284.954 304.568 285.973 304.568 287.035C304.568 288.098 304.137 289.117 303.37 289.868C302.603 290.619 301.562 291.041 300.477 291.041Z" fill="#CCCCCC"/>
<path d="M283.601 322.114H154.804C153.719 322.114 152.678 321.692 151.911 320.941C151.144 320.189 150.713 319.171 150.713 318.108C150.713 317.046 151.144 316.027 151.911 315.276C152.678 314.524 153.719 314.102 154.804 314.102H283.601C284.686 314.102 285.727 314.524 286.494 315.276C287.261 316.027 287.692 317.046 287.692 318.108C287.692 319.171 287.261 320.189 286.494 320.941C285.727 321.692 284.686 322.114 283.601 322.114Z" fill="#CCCCCC"/>
<path d="M300.477 335.633H154.804C153.719 335.633 152.678 335.211 151.911 334.46C151.144 333.709 150.713 332.69 150.713 331.628C150.713 330.565 151.144 329.546 151.911 328.795C152.678 328.044 153.719 327.622 154.804 327.622H300.477C301.562 327.622 302.603 328.044 303.37 328.795C304.137 329.546 304.568 330.565 304.568 331.628C304.568 332.69 304.137 333.709 303.37 334.46C302.603 335.211 301.562 335.633 300.477 335.633Z" fill="#CCCCCC"/>
<path d="M316.935 309.066C311.638 309.06 306.392 310.077 301.496 312.058C296.601 314.039 292.152 316.945 288.404 320.61C284.656 324.276 281.683 328.628 279.655 333.42C277.626 338.211 276.582 343.346 276.582 348.533C276.582 353.719 277.626 358.855 279.655 363.646C281.683 368.438 284.656 372.79 288.404 376.456C292.152 380.121 296.6 383.027 301.496 385.008C306.392 386.989 311.638 388.006 316.935 388H316.935C327.613 387.981 337.848 383.815 345.391 376.416C352.935 369.016 357.172 358.988 357.172 348.533C357.172 338.078 352.935 328.05 345.391 320.65C337.848 313.251 327.613 309.085 316.935 309.066Z" fill="#E6F288"/>
<path d="M313.111 364.924C312.05 364.926 311.017 364.589 310.168 363.966L310.115 363.928L299.03 355.625C297.995 354.846 297.317 353.697 297.147 352.429C296.977 351.162 297.327 349.88 298.121 348.865C298.916 347.851 300.089 347.187 301.384 347.019C302.678 346.851 303.987 347.193 305.024 347.97L312.204 353.36L329.17 331.688C329.564 331.186 330.054 330.764 330.614 330.447C331.174 330.13 331.792 329.925 332.433 329.842C333.074 329.759 333.726 329.8 334.35 329.964C334.975 330.127 335.561 330.41 336.074 330.795L336.074 330.795L336.075 330.796L335.97 330.939L336.078 330.796C337.113 331.575 337.791 332.725 337.962 333.992C338.132 335.26 337.783 336.542 336.989 337.557L317.033 363.037C316.571 363.624 315.978 364.099 315.298 364.425C314.619 364.752 313.872 364.92 313.115 364.918L313.111 364.924Z" fill="white"/>
</g>
<defs>
<clipPath id="clip0">
<rect width="438" height="388" fill="white"/>
</clipPath>
</defs>
</svg>
